<svg width="96" height="96" viewBox="0 0 96 96" xmlns="http://www.w3.org/2000/svg">
    <defs>
        <linearGradient id="p" x1="0%" y1="0%" x2="100%" y2="100%">
            <stop offset="0%" stop-color="#92D14F"/>
            <stop offset="100%" stop-color="#609628"/>
        </linearGradient>
        <linearGradient id="d" x1="0%" y1="0%" x2="100%" y2="100%">
            <stop offset="0%" stop-color="#F2E3A1"/>
            <stop offset="100%" stop-color="#D4A34D"/>
        </linearGradient>
    </defs>
    <path d="M10 70L50 54L90 70L50 86Z" fill="url(#d)" opacity=".4"/>
    <path d="M10 64L50 48L90 64L50 80Z" fill="url(#d)" opacity=".6"/>
    <path d="M10 58L50 42L90 58L50 74Z" fill="url(#d)" opacity=".8"/>
    <path d="M10 52L50 36L90 52L50 68Z" fill="url(#d)"/>
    <path d="M10 46L50 30L90 46L50 62Z" fill="url(#p)"/>
    <g transform="translate(44 32)">
        <path d="M0 3L6 0L12 3L6 6Z" fill="#fff"/>
        <path d="M0 3L6 6L6 11L0 8Z" fill="#f2f2f2"/>
        <path d="M6 6L12 3L12 8L6 11Z" fill="#d9d9d9"/>
    </g>
    <g transform="translate(32 40)">
        <path d="M0 3L6 0L12 3L6 6Z" fill="#fff"/>
        <path d="M0 3L6 6L6 11L0 8Z" fill="#f2f2f2"/>
        <path d="M6 6L12 3L12 8L6 11Z" fill="#d9d9d9"/>
    </g>
    <g transform="translate(56 40)">
        <path d="M0 3L6 0L12 3L6 6Z" fill="#fff"/>
        <path d="M0 3L6 6L6 11L0 8Z" fill="#f2f2f2"/>
        <path d="M6 6L12 3L12 8L6 11Z" fill="#d9d9d9"/>
    </g>
</svg>
