<svg width="96" height="96" viewBox="0 12 96 96" fill="none" xmlns="http://www.w3.org/2000/svg">
    <defs>
        <linearGradient id="pistachio" x1="0%" y1="0%" x2="100%" y2="100%">
            <stop offset="0%" stop-color="#92D14F"/>
            <stop offset="100%" stop-color="#609628"/>
        </linearGradient>
        <linearGradient id="dough" x1="0%" y1="0%" x2="100%" y2="100%">
            <stop offset="0%" stop-color="#F2E3A1"/>
            <stop offset="100%" stop-color="#D4A34D"/>
        </linearGradient>
    </defs>

    <path d="M10 65 L50 48 L90 65 L50 82 Z" fill="url(#dough)" opacity="0.4"/>
    <path d="M10 60 L50 43 L90 60 L50 77 Z" fill="url(#dough)" opacity="0.6"/>
    <path d="M10 55 L50 38 L90 55 L50 72 Z" fill="url(#dough)" opacity="0.8"/>
    <path d="M10 50 L50 33 L90 50 L50 67 Z" fill="url(#dough)"/>
    <path d="M10 45 L50 28 L90 45 L50 62 Z" fill="url(#pistachio)"/>

    <g transform="translate(44,31.5)">
        <path d="M0 3 L6 0 L12 3 L6 6 Z" fill="#FFFFFF"/>
        <path d="M0 3 L6 6 L6 11 L0 8 Z" fill="#F2F2F2"/>
        <path d="M6 6 L12 3 L12 8 L6 11 Z" fill="#D9D9D9"/>
    </g>
    <g transform="translate(32,40.5)">
        <path d="M0 3 L6 0 L12 3 L6 6 Z" fill="#FFFFFF"/>
        <path d="M0 3 L6 6 L6 11 L0 8 Z" fill="#F2F2F2"/>
        <path d="M6 6 L12 3 L12 8 L6 11 Z" fill="#D9D9D9"/>
    </g>
    <g transform="translate(56,40.5)">
        <path d="M0 3 L6 0 L12 3 L6 6 Z" fill="#FFFFFF"/>
        <path d="M0 3 L6 6 L6 11 L0 8 Z" fill="#F2F2F2"/>
        <path d="M6 6 L12 3 L12 8 L6 11 Z" fill="#D9D9D9"/>
    </g>
</svg>
